<svg width="53" height="53" viewBox="0 0 53 53" fill="none" xmlns="http://www.w3.org/2000/svg">
<path d="M26.4004 1C40.4283 1.0002 51.7998 12.3725 51.7998 26.4004C51.7996 40.4281 40.4281 51.7996 26.4004 51.7998C12.3725 51.7998 1.00021 40.4282 1 26.4004C1 12.3724 12.3724 1 26.4004 1Z" fill="black"/>
<path d="M26.4004 1C40.4283 1.0002 51.7998 12.3725 51.7998 26.4004C51.7996 40.4281 40.4281 51.7996 26.4004 51.7998C12.3725 51.7998 1.00021 40.4282 1 26.4004C1 12.3724 12.3724 1 26.4004 1Z" stroke="black" stroke-width="2"/>
<path d="M37.1811 24.2C37.6835 26.6654 37.3254 29.2286 36.1667 31.462C35.008 33.6954 33.1187 35.464 30.8138 36.473C28.5089 37.482 25.9277 37.6704 23.5008 37.0066C21.0738 36.3428 18.9478 34.8671 17.4772 32.8256C16.0066 30.784 15.2803 28.2999 15.4195 25.7877C15.5587 23.2755 16.5549 20.8869 18.2421 19.0203C19.9292 17.1537 22.2053 15.9219 24.6907 15.5303C27.1761 15.1387 29.7207 15.611 31.9 16.8685" stroke="white" stroke-width="2" stroke-linecap="round" stroke-linejoin="round"/>
<path d="M23.1 25.2999L26.4 28.5999L37.4 17.5999" stroke="white" stroke-width="2" stroke-linecap="round" stroke-linejoin="round"/>
</svg>
