<svg width="16" height="16" viewBox="0 0 16 16" fill="none" xmlns="http://www.w3.org/2000/svg">
<g clip-path="url(#clip0_6_71)">
<path d="M13.3333 6.66659C13.3333 9.99525 9.64066 13.4619 8.40066 14.5326C8.28514 14.6194 8.14452 14.6664 7.99999 14.6664C7.85546 14.6664 7.71484 14.6194 7.59932 14.5326C6.35932 13.4619 2.66666 9.99525 2.66666 6.66659C2.66666 5.2521 3.22856 3.89554 4.22875 2.89535C5.22895 1.89516 6.5855 1.33325 7.99999 1.33325C9.41448 1.33325 10.771 1.89516 11.7712 2.89535C12.7714 3.89554 13.3333 5.2521 13.3333 6.66659Z" stroke="#4B5563" stroke-width="2" stroke-linecap="round" stroke-linejoin="round"/>
<path d="M8 8.66675C9.10457 8.66675 10 7.77132 10 6.66675C10 5.56218 9.10457 4.66675 8 4.66675C6.89543 4.66675 6 5.56218 6 6.66675C6 7.77132 6.89543 8.66675 8 8.66675Z" stroke="#4B5563" stroke-width="2" stroke-linecap="round" stroke-linejoin="round"/>
</g>
<defs>
<clipPath id="clip0_6_71">
<rect width="16" height="16" fill="white"/>
</clipPath>
</defs>
</svg>
