<svg width="16" height="16" viewBox="0 0 16 16" fill="none" xmlns="http://www.w3.org/2000/svg">
<g clip-path="url(#clip0_6_152)">
<path d="M10.6666 14V12.6667C10.6666 11.9594 10.3857 11.2811 9.8856 10.781C9.3855 10.281 8.70722 10 7.99998 10H3.99998C3.29274 10 2.61446 10.281 2.11436 10.781C1.61426 11.2811 1.33331 11.9594 1.33331 12.6667V14" stroke="#374151" stroke-width="2" stroke-linecap="round" stroke-linejoin="round"/>
<path d="M10.6667 2.08545C11.2385 2.2337 11.7449 2.56763 12.1065 3.03482C12.468 3.50202 12.6642 4.07604 12.6642 4.66678C12.6642 5.25752 12.468 5.83154 12.1065 6.29874C11.7449 6.76594 11.2385 7.09987 10.6667 7.24812" stroke="#374151" stroke-width="2" stroke-linecap="round" stroke-linejoin="round"/>
<path d="M14.6667 14V12.6667C14.6662 12.0758 14.4696 11.5019 14.1076 11.0349C13.7456 10.5679 13.2388 10.2344 12.6667 10.0867" stroke="#374151" stroke-width="2" stroke-linecap="round" stroke-linejoin="round"/>
<path d="M5.99998 7.33333C7.47274 7.33333 8.66665 6.13943 8.66665 4.66667C8.66665 3.19391 7.47274 2 5.99998 2C4.52722 2 3.33331 3.19391 3.33331 4.66667C3.33331 6.13943 4.52722 7.33333 5.99998 7.33333Z" stroke="#374151" stroke-width="2" stroke-linecap="round" stroke-linejoin="round"/>
</g>
<defs>
<clipPath id="clip0_6_152">
<rect width="16" height="16" fill="white"/>
</clipPath>
</defs>
</svg>
