<svg width="16" height="16" viewBox="0 0 16 16" fill="none" xmlns="http://www.w3.org/2000/svg">
<g clip-path="url(#clip0_6_467)">
<path d="M1.33333 5.99998C1.86376 5.99998 2.37247 6.21069 2.74754 6.58577C3.12261 6.96084 3.33333 7.46955 3.33333 7.99998C3.33333 8.53041 3.12261 9.03912 2.74754 9.41419C2.37247 9.78927 1.86376 9.99998 1.33333 9.99998V11.3333C1.33333 11.6869 1.4738 12.0261 1.72385 12.2761C1.9739 12.5262 2.31304 12.6666 2.66666 12.6666H13.3333C13.6869 12.6666 14.0261 12.5262 14.2761 12.2761C14.5262 12.0261 14.6667 11.6869 14.6667 11.3333V9.99998C14.1362 9.99998 13.6275 9.78927 13.2524 9.41419C12.8774 9.03912 12.6667 8.53041 12.6667 7.99998C12.6667 7.46955 12.8774 6.96084 13.2524 6.58577C13.6275 6.21069 14.1362 5.99998 14.6667 5.99998V4.66665C14.6667 4.31302 14.5262 3.97389 14.2761 3.72384C14.0261 3.47379 13.6869 3.33331 13.3333 3.33331H2.66666C2.31304 3.33331 1.9739 3.47379 1.72385 3.72384C1.4738 3.97389 1.33333 4.31302 1.33333 4.66665V5.99998Z" stroke="white" stroke-width="2" stroke-linecap="round" stroke-linejoin="round"/>
<path d="M8.66667 7.33331V8.66665" stroke="white" stroke-width="2" stroke-linecap="round" stroke-linejoin="round"/>
</g>
<defs>
<clipPath id="clip0_6_467">
<rect width="16" height="16" fill="white"/>
</clipPath>
</defs>
</svg>
