<svg width="53" height="53" viewBox="0 0 53 53" fill="none" xmlns="http://www.w3.org/2000/svg">
<path d="M26.4004 1C40.4283 1.00021 51.7998 12.3725 51.7998 26.4004C51.7996 40.4281 40.4281 51.7996 26.4004 51.7998C12.3725 51.7998 1.00021 40.4282 1 26.4004C1 12.3724 12.3724 1 26.4004 1Z" fill="black"/>
<path d="M26.4004 1C40.4283 1.00021 51.7998 12.3725 51.7998 26.4004C51.7996 40.4281 40.4281 51.7996 26.4004 51.7998C12.3725 51.7998 1.00021 40.4282 1 26.4004C1 12.3724 12.3724 1 26.4004 1Z" stroke="black" stroke-width="2"/>
<path d="M15.4 23.1C16.2752 23.1 17.1146 23.4476 17.7334 24.0665C18.3523 24.6854 18.7 25.5247 18.7 26.4C18.7 27.2752 18.3523 28.1145 17.7334 28.7334C17.1146 29.3523 16.2752 29.7 15.4 29.7V31.9C15.4 32.4834 15.6318 33.043 16.0443 33.4556C16.4569 33.8682 17.0165 34.1 17.6 34.1H35.2C35.7835 34.1 36.3431 33.8682 36.7556 33.4556C37.1682 33.043 37.4 32.4834 37.4 31.9V29.7C36.5248 29.7 35.6854 29.3523 35.0666 28.7334C34.4477 28.1145 34.1 27.2752 34.1 26.4C34.1 25.5247 34.4477 24.6854 35.0666 24.0665C35.6854 23.4476 36.5248 23.1 37.4 23.1V20.9C37.4 20.3165 37.1682 19.7569 36.7556 19.3443C36.3431 18.9317 35.7835 18.7 35.2 18.7H17.6C17.0165 18.7 16.4569 18.9317 16.0443 19.3443C15.6318 19.7569 15.4 20.3165 15.4 20.9V23.1Z" stroke="white" stroke-width="2" stroke-linecap="round" stroke-linejoin="round"/>
<path d="M27.5 18.7V20.9" stroke="white" stroke-width="2" stroke-linecap="round" stroke-linejoin="round"/>
<path d="M27.5 31.8999V34.0999" stroke="white" stroke-width="2" stroke-linecap="round" stroke-linejoin="round"/>
<path d="M27.5 25.3V27.5" stroke="white" stroke-width="2" stroke-linecap="round" stroke-linejoin="round"/>
</svg>
