<svg width="48" height="48" viewBox="0 0 48 48" fill="none" xmlns="http://www.w3.org/2000/svg">
<path d="M24 1C36.7025 1 47 11.2975 47 24C47 36.7025 36.7025 47 24 47C11.2975 47 1 36.7025 1 24C1 11.2975 11.2975 1 24 1Z" fill="white"/>
<path d="M24 1C36.7025 1 47 11.2975 47 24C47 36.7025 36.7025 47 24 47C11.2975 47 1 36.7025 1 24C1 11.2975 11.2975 1 24 1Z" stroke="#D1D5DB" stroke-width="2"/>
<path d="M14.4531 21C15.2488 21 16.0118 21.3161 16.5744 21.8787C17.1371 22.4413 17.4531 23.2044 17.4531 24C17.4531 24.7956 17.1371 25.5587 16.5744 26.1213C16.0118 26.6839 15.2488 27 14.4531 27V29C14.4531 29.5304 14.6638 30.0391 15.0389 30.4142C15.414 30.7893 15.9227 31 16.4531 31H32.4531C32.9836 31 33.4923 30.7893 33.8673 30.4142C34.2424 30.0391 34.4531 29.5304 34.4531 29V27C33.6575 27 32.8944 26.6839 32.3318 26.1213C31.7692 25.5587 31.4531 24.7956 31.4531 24C31.4531 23.2044 31.7692 22.4413 32.3318 21.8787C32.8944 21.3161 33.6575 21 34.4531 21V19C34.4531 18.4696 34.2424 17.9609 33.8673 17.5858C33.4923 17.2107 32.9836 17 32.4531 17H16.4531C15.9227 17 15.414 17.2107 15.0389 17.5858C14.6638 17.9609 14.4531 18.4696 14.4531 19V21Z" stroke="#9CA3AF" stroke-width="2" stroke-linecap="round" stroke-linejoin="round"/>
<path d="M25 17V19" stroke="#9CA3AF" stroke-width="2" stroke-linecap="round" stroke-linejoin="round"/>
<path d="M25 29V31" stroke="#9CA3AF" stroke-width="2" stroke-linecap="round" stroke-linejoin="round"/>
<path d="M25 23V25" stroke="#9CA3AF" stroke-width="2" stroke-linecap="round" stroke-linejoin="round"/>
</svg>
