<svg width="53" height="53" viewBox="0 0 53 53" fill="none" xmlns="http://www.w3.org/2000/svg">
<path d="M26.4004 1C40.4282 1.00021 51.7998 12.3725 51.7998 26.4004C51.7996 40.4281 40.4281 51.7996 26.4004 51.7998C12.3725 51.7998 1.00021 40.4282 1 26.4004C1 12.3724 12.3724 1 26.4004 1Z" fill="black"/>
<path d="M26.4004 1C40.4282 1.00021 51.7998 12.3725 51.7998 26.4004C51.7996 40.4281 40.4281 51.7996 26.4004 51.7998C12.3725 51.7998 1.00021 40.4282 1 26.4004C1 12.3724 12.3724 1 26.4004 1Z" stroke="black" stroke-width="2"/>
<path d="M22 15.3999V19.7999" stroke="white" stroke-width="2" stroke-linecap="round" stroke-linejoin="round"/>
<path d="M30.8 15.3999V19.7999" stroke="white" stroke-width="2" stroke-linecap="round" stroke-linejoin="round"/>
<path d="M34.1 17.5999H18.7C17.485 17.5999 16.5 18.5848 16.5 19.7999V35.1999C16.5 36.4149 17.485 37.3999 18.7 37.3999H34.1C35.315 37.3999 36.3 36.4149 36.3 35.1999V19.7999C36.3 18.5848 35.315 17.5999 34.1 17.5999Z" stroke="white" stroke-width="2" stroke-linecap="round" stroke-linejoin="round"/>
<path d="M16.5 24.2H36.3" stroke="white" stroke-width="2" stroke-linecap="round" stroke-linejoin="round"/>
</svg>
