<svg width="53" height="53" viewBox="0 0 53 53" fill="none" xmlns="http://www.w3.org/2000/svg">
<path d="M26.4004 1C40.4283 1.0002 51.7998 12.3725 51.7998 26.4004C51.7996 40.4281 40.4281 51.7996 26.4004 51.7998C12.3725 51.7998 1.00021 40.4282 1 26.4004C1 12.3724 12.3724 1 26.4004 1Z" fill="black"/>
<path d="M26.4004 1C40.4283 1.0002 51.7998 12.3725 51.7998 26.4004C51.7996 40.4281 40.4281 51.7996 26.4004 51.7998C12.3725 51.7998 1.00021 40.4282 1 26.4004C1 12.3724 12.3724 1 26.4004 1Z" stroke="black" stroke-width="2"/>
<path d="M30.8 36.3V34.1C30.8 32.933 30.3365 31.8138 29.5113 30.9887C28.6861 30.1635 27.567 29.7 26.4 29.7H19.8C18.6331 29.7 17.5139 30.1635 16.6888 30.9887C15.8636 31.8138 15.4 32.933 15.4 34.1V36.3" stroke="white" stroke-width="2" stroke-linecap="round" stroke-linejoin="round"/>
<path d="M30.8 16.6409C31.7436 16.8855 32.5792 17.4365 33.1757 18.2073C33.7722 18.9782 34.0958 19.9253 34.0958 20.9001C34.0958 21.8748 33.7722 22.8219 33.1757 23.5928C32.5792 24.3637 31.7436 24.9147 30.8 25.1593" stroke="white" stroke-width="2" stroke-linecap="round" stroke-linejoin="round"/>
<path d="M37.4 36.3V34.1C37.3993 33.1251 37.0748 32.1781 36.4775 31.4076C35.8803 30.6371 35.044 30.0867 34.1 29.843" stroke="white" stroke-width="2" stroke-linecap="round" stroke-linejoin="round"/>
<path d="M23.1 25.3C25.5301 25.3 27.5 23.3301 27.5 20.9C27.5 18.4699 25.5301 16.5 23.1 16.5C20.67 16.5 18.7 18.4699 18.7 20.9C18.7 23.3301 20.67 25.3 23.1 25.3Z" stroke="white" stroke-width="2" stroke-linecap="round" stroke-linejoin="round"/>
</svg>
